<?xml version="1.0" standalone="no"?>
<!DOCTYPE svg PUBLIC "-//W3C//DTD SVG 1.1//EN" "http://www.w3.org/Graphics/SVG/1.1/DTD/svg11.dtd" >
<!--
2013-9-30: Created.
-->
<svg>
<metadata>
Created by iconfont
</metadata>
<defs>

<font id="iconfont" horiz-adv-x="1024" >
  <font-face
    font-family="iconfont"
    font-weight="500"
    font-stretch="normal"
    units-per-em="1024"
    ascent="896"
    descent="-128"
  />
    <missing-glyph />
    
    <glyph glyph-name="appreciate" unicode="&#58948;" d="M873.6 480h-188.8c12.8 44.8 28.8 115.2 19.2 188.8-6.4 60.8-41.6 105.6-92.8 124.8-38.4 12.8-76.8 6.4-99.2-16-25.6-25.6-38.4-76.8-51.2-128-9.6-35.2-16-70.4-28.8-89.6-32-54.4-102.4-76.8-115.2-80H224c-19.2 0-32-12.8-32-32v-448c0-19.2 12.8-32 32-32h547.2C896-32 960 358.4 960 380.79999999999995c0 57.6-44.8 99.2-86.4 99.2z m-102.4-444.8h-448H256V416H332.8c22.4 6.4 108.8 38.4 150.4 108.8 16 25.6 25.6 64 35.2 105.6 9.6 38.4 19.2 86.4 35.2 99.2 3.2 3.2 19.2 6.4 38.4 0 16-3.2 41.6-19.2 48-67.2 12.8-102.4-32-201.6-32-201.6-3.2-9.6-3.2-22.4 3.2-32 6.4-9.6 16-16 25.6-16h236.8c6.4 0 25.6-12.8 25.6-32-3.2-67.2-83.2-345.6-128-345.6zM96 480c-19.2 0-32-12.8-32-32v-448c0-19.2 12.8-32 32-32s32 12.8 32 32V448c0 19.2-12.8 32-32 32z"  horiz-adv-x="1024" />

    
    <glyph glyph-name="favor" unicode="&#58956;" d="M767.104-63.936c-5.344 0-10.688 1.344-15.52 4.032l-241.312 133.856-241.824-133.024c-10.72-5.92-23.904-5.152-33.888 1.92-10.016 7.072-15.104 19.264-13.12 31.328l46.88 284.736-196.448 202.08c-8.256 8.512-11.168 20.928-7.456 32.192 3.68 11.296 13.312 19.616 25.024 21.632l155.072 26.592c17.632 2.944 33.984-8.736 36.96-26.144 2.976-17.408-8.704-33.952-26.144-36.96l-95.168-16.32 165.344-170.08c7.072-7.296 10.272-17.504 8.64-27.488l-38.816-235.68 199.616 109.824c9.632 5.312 21.344 5.312 30.944-0.064l199.168-110.464-38.016 235.776c-1.632 10.016 1.632 20.224 8.704 27.456l164.672 168.256-225.664 34.816c-10.56 1.632-19.584 8.416-24.128 18.08l-99.2 212.384-100.064-211.84c-7.552-16-26.624-22.816-42.624-15.264-15.968 7.552-22.816 26.624-15.264 42.624l129.152 273.44c5.312 11.2 16.576 18.336 28.928 18.336 0 0 0.032 0 0.064 0 12.416-0.032 23.68-7.232 28.928-18.464l120.8-258.624 270.336-41.728c11.872-1.824 21.696-10.144 25.504-21.504 3.776-11.36 0.864-23.936-7.488-32.48l-196.928-201.216 45.92-284.864c1.952-12.096-3.2-24.256-13.216-31.296C780-62.016 773.568-63.936 767.104-63.936z"  horiz-adv-x="1024" />

    
    <glyph glyph-name="location" unicode="&#58961;" d="M512 288c-105.888 0-192 86.112-192 192s86.112 192 192 192 192-86.112 192-192S617.888 288 512 288zM512 608c-70.592 0-128-57.408-128-128s57.408-128 128-128c70.592 0 128 57.408 128 128S582.592 608 512 608zM512-64c-7.936 0-15.904 2.944-22.08 8.832-12.768 12.224-13.248 32.48-1.056 45.248C575.392 80.8 800 345.664 800 480c0 158.784-129.184 288-288 288-158.784 0-288-129.216-288-288 0-75.616 72.544-206.08 204.256-367.424 11.2-13.728 9.152-33.888-4.544-45.024-13.696-11.168-33.888-9.152-45.024 4.544C233.568 249.824 160 387.072 160 480 160 674.08 317.92 832 512 832s352-157.92 352-352c0-187.36-315.424-520.032-328.832-534.08C528.864-60.672 520.448-64 512-64z"  horiz-adv-x="1024" />

    
    <glyph glyph-name="search" unicode="&#58972;" d="M953.504-12.255999999999972l-152.608 163.296c61.856 74.496 95.872 167.36 95.872 265.12 0 229.344-186.624 415.968-416.032 415.968-229.344 0-415.968-186.592-415.968-415.968s186.624-415.968 416-415.968c60.096 0.032 118.048 12.576 172.224 37.248 16.096 7.328 23.2 26.304 15.872 42.368-7.328 16.128-26.4 23.264-42.368 15.872-45.856-20.864-94.88-31.456-145.76-31.488-194.08 0-351.968 157.888-351.968 351.968 0 194.048 157.888 351.968 351.968 351.968 194.112 0 352.032-157.888 352.032-351.968 0-91.36-34.848-177.92-98.08-243.744-12.256-12.736-11.84-32.992 0.864-45.248 0.96-0.928 2.208-1.28 3.296-2.08 0.864-1.28 1.312-2.752 2.4-3.904l165.504-177.088c6.272-6.752 14.816-10.144 23.36-10.144 7.84 0 15.68 2.848 21.856 8.64C964.864-45.408000000000015 965.568-25.152000000000044 953.504-12.255999999999972z"  horiz-adv-x="1024" />

    
    <glyph glyph-name="shuoshuo" unicode="&#58983;" d="M512-52.12562437999998c-8.58831999 0-17.17663997 3.28771625-23.71852434 9.82960061l-100.64437485 100.64437486c-13.11731686 13.11731686-13.11731686 34.31973183 0 47.43704868s34.31973183 13.11731686 47.43704868 0L512 28.859549259999994l76.92585051 76.92585051C595.19934988 112.09244725999997 603.72057361 115.61500037999997 612.64437486 115.61500037999997l234.83687466 0c18.51856497 0 33.54812495 15.02955998 33.54812496 33.54812494L881.02937448 685.93312457c0 18.48501685-15.02955998 33.54812495-33.54812496 33.54812495L176.51875048 719.48124952C158.03373362 719.48124952 142.97062552 704.41814142 142.97062552 685.93312457l0-536.76999925c0-18.51856497 15.0631081-33.54812495 33.54812496-33.54812494l100.64437484 0c18.51856497 0 33.54812495-14.99601186 33.54812497-33.54812495s-15.02955998-33.54812495-33.54812497-33.54812495L176.51875048 48.518750479999994c-55.48859866 0-100.64437486 45.15577618-100.64437486 100.64437484L75.87437562 685.93312457c0 55.48859866 45.15577618 100.64437486 100.64437486 100.64437487l670.96249904 0c55.48859866 0 100.64437486-45.15577618 100.64437486-100.64437487l0-536.76999925c0-55.48859866-45.15577618-100.64437486-100.64437486-100.64437484l-220.94795093 0-90.81477425-90.81477425C529.17663997-48.83790813999997 520.58831999-52.12562437999998 512-52.12562437999998zM327.48531276 384C299.74101342 384 277.16312532 406.57788809 277.16312532 434.32218743S299.74101342 484.64437486 327.48531276 484.64437486s50.32218743-22.57788809 50.32218743-50.32218743S355.2296121 384 327.48531276 384zM528.77406248 384c-27.74429934 0-50.32218743 22.57788809-50.32218743 50.32218743s22.57788809 50.32218743 50.32218743 50.32218743 50.32218743-22.57788809 50.32218742-50.32218743S556.51836181 384 528.77406248 384zM730.06281219 384c-27.74429934 0-50.32218743 22.57788809-50.32218743 50.32218743s22.57788809 50.32218743 50.32218743 50.32218743 50.32218743-22.57788809 50.32218743-50.32218743S757.80711153 384 730.06281219 384z"  horiz-adv-x="1024" />

    
    <glyph glyph-name="left" unicode="&#59001;" d="M671.968-16c-12.288 0-24.576 4.672-33.952 14.048L286.048 350.01599999999996c-18.752 18.72-18.752 49.12 0 67.872l351.968 352c18.752 18.752 49.12 18.752 67.872 0 18.752-18.72 18.752-49.12 0-67.872l-318.016-318.048 318.016-318.016c18.752-18.752 18.752-49.12 0-67.872C696.544-11.327999999999975 684.256-16 671.968-16z"  horiz-adv-x="1024" />

    
    <glyph glyph-name="xingzuo" unicode="&#59006;" d="M548.83333333 604.5c0 52.101-42.399 94.5-94.5 94.5s-94.5-42.399-94.5-94.5 42.399-94.5 94.5-94.5S548.83333333 552.399 548.83333333 604.5zM422.83333333 604.5c0 17.3565 14.1435 31.5 31.5 31.5s31.5-14.1435 31.5-31.5-14.1435-31.5-31.5-31.5S422.83333333 587.1435 422.83333333 604.5zM312.58333333 447C269.17633333 447 233.83333333 411.657 233.83333333 368.25 233.83333333 324.8115 269.17633333 289.5 312.58333333 289.5s78.75 35.3115 78.75 78.75C391.33333333 411.657 355.99033333 447 312.58333333 447zM312.58333333 352.5C303.88933333 352.5 296.83333333 359.55600000000004 296.83333333 368.25S303.88933333 384 312.58333333 384s15.75-7.056 15.75-15.75S321.27733333 352.5 312.58333333 352.5zM643.33333333 163.5m-63 0a1.96875 1.96875 0 1 1 126 0 1.96875 1.96875 0 1 1-126 0ZM887.30083333 623.5260000000001c39.123 59.724 63.252 111.4155 63.2205 146.6325 0 22.617-9.1665 36.351-16.8525 43.8795-37.485 36.792-108.297 3.15-158.256-25.263-15.0885-8.5995-20.3805-27.846-11.781-42.966 8.5995-15.12 27.8775-20.3805 42.966-11.781 48.636 27.72 72.1035 32.571 81.207 33.1695-1.4805-40.7295-93.8385-199.269-325.0485-426.7305-222.831-219.24-392.427-319.599-435.33-320.292 0.945 11.1825 8.631 43.7535 57.6135 116.8335 1.2915 1.8585 2.3625 3.906 3.1815 6.048l2.268 5.8275c0.252 0.63 0.2835 1.323 0.504 1.9845 8.6625 10.08 10.647 24.696 3.339 36.666C158.35933333 246.56550000000004 139.33333333 314.51099999999997 139.33333333 384 139.33333333 592.4355 308.89783333 762 517.33333333 762c58.3695 0 114.282-12.915 166.2255-38.43 15.687-7.6545 34.4925-1.1655 42.147 14.427 7.6545 15.5925 1.2285 34.461-14.3955 42.147C650.64133333 809.9115 585.37333333 825 517.33333333 825 274.15333333 825 76.33333333 627.1800000000001 76.33333333 384c0-74.8755 19.1835-148.1445 55.188-213.255-0.189-0.567-0.63-1.0395-0.7875-1.6065C63.70183333 68.40150000000006 47.98333333 6.315000000000055 81.18433333-26.255999999999972c10.836-10.6155 25.2315-15.3405 42.399-15.3405 38.7135 0 91.413 24.5385 147.735 59.9445C344.17783333-30.823499999999967 428.69233333-57 517.33333333-57c243.18 0 441 197.82 441 441C958.33333333 469.7745 933.63733333 552.0840000000001 887.30083333 623.5260000000001zM517.33333333 6c-67.221 0-131.6385 17.6085-188.8425 50.7465 126.2835 90.8145 254.394 215.145 278.4285 238.833 87.759 86.3415 175.77 184.1175 240.8175 271.656C878.79583333 511.386 895.33333333 448.8585 895.33333333 384 895.33333333 175.56449999999995 725.76883333 6 517.33333333 6z"  horiz-adv-x="1024" />

    
    <glyph glyph-name="form" unicode="&#59033;" d="M800-32 224-32c-52.928 0-96 43.072-96 96L128 704c0 52.928 43.072 96 96 96l576 0c52.928 0 96-43.072 96-96l0-640C896 11.072 852.928-32 800-32zM224 736C206.368 736 192 721.632 192 704l0-640c0-17.664 14.368-32 32-32l576 0c17.664 0 32 14.336 32 32L832 704c0 17.632-14.336 32-32 32L224 736zM640.992 351.136 287.776 351.136c-17.664 0-32 14.336-32 32s14.336 32 32 32l353.216 0c17.696 0 32-14.336 32-32S658.688 351.136 640.992 351.136zM734.88 160.48 287.648 160.48c-17.664 0-32 14.304-32 32s14.336 32 32 32l447.232 0c17.696 0 32-14.304 32-32S752.576 160.48 734.88 160.48zM303.712 590.656m-48 0a1.5 1.5 0 1 0 96 0 1.5 1.5 0 1 0-96 0ZM511.104 590.656m-48 0a1.5 1.5 0 1 0 96 0 1.5 1.5 0 1 0-96 0ZM719.232 590.656m-48 0a1.5 1.5 0 1 0 96 0 1.5 1.5 0 1 0-96 0Z"  horiz-adv-x="1024" />

    
    <glyph glyph-name="right" unicode="&#59043;" d="M761.056 363.87199999999996c0.512 0.992 1.344 1.824 1.792 2.848 8.8 18.304 5.92 40.704-9.664 55.424L399.936 756.256c-19.264 18.208-49.632 17.344-67.872-1.888-18.208-19.264-17.376-49.632 1.888-67.872l316.96-299.84-315.712-304.288c-19.072-18.4-19.648-48.768-1.248-67.872 9.408-9.792 21.984-14.688 34.56-14.688 12 0 24 4.48 33.312 13.44l350.048 337.376c0.672 0.672 0.928 1.6 1.6 2.304 0.512 0.48 1.056 0.832 1.568 1.344C757.76 357.12 759.2 360.60799999999995 761.056 363.87199999999996z"  horiz-adv-x="1024" />

    
    <glyph glyph-name="home" unicode="&#59064;" d="M96 416c-9.6 0-19.2 3.2-25.6 12.8-12.8 12.8-9.6 35.2 3.2 44.8l377.6 310.4c35.2 25.6 86.4 25.6 118.4 0l377.6-307.2c12.8-9.6 16-32 3.2-44.8-12.8-12.8-32-16-44.8-3.2L531.2 729.6c-9.6 6.4-28.8 6.4-38.4 0L115.2 422.4c-6.4-6.4-12.8-6.4-19.2-6.4zM816-32H608c-19.2 0-32 12.8-32 32v150.4c0 22.4-38.4 44.8-67.2 44.8-28.8 0-64-19.2-64-44.8V0c0-19.2-12.8-32-32-32H211.2C163.2-32 128 3.2000000000000455 128 48V352c0 19.2 12.8 32 32 32s32-12.8 32-32v-304c0-9.6 6.4-16 19.2-16H384v118.4c0 64 67.2 108.8 128 108.8s131.2-44.8 131.2-108.8V32h176c9.6 0 16 0 16 19.2V352c0 19.2 12.8 32 32 32s32-12.8 32-32v-304C896 0 864-32 816-32z"  horiz-adv-x="1024" />

    
    <glyph glyph-name="share" unicode="&#59123;" d="M768.704 192.38400000000001c-35.648 0-67.904-14.72-91.136-38.304l-309.152 171.712c9.056 17.568 14.688 37.184 14.688 58.272 0 12.576-2.368 24.48-5.76 35.936l304.608 189.152c22.688-20.416 52.384-33.184 85.216-33.184 70.592 0 128 57.408 128 128s-57.408 128-128 128-128-57.408-128-128c0-14.56 2.976-28.352 7.456-41.408l-301.824-187.392c-23.136 22.784-54.784 36.928-89.728 36.928-70.592 0-128-57.408-128-128 0-70.592 57.408-128 128-128 25.664 0 49.504 7.744 69.568 20.8l321.216-178.4c-3.04-10.944-5.184-22.208-5.184-34.08 0-70.592 57.408-128 128-128s128 57.408 128 128S839.328 192.38400000000001 768.704 192.38400000000001zM767.2 767.968c35.296 0 64-28.704 64-64s-28.704-64-64-64-64 28.704-64 64S731.904 767.968 767.2 767.968zM191.136 384.064c0 35.296 28.704 64 64 64s64-28.704 64-64c0-35.296-28.704-64-64-64S191.136 348.76800000000003 191.136 384.064zM768.704 0.38400000000001455c-35.296 0-64 28.704-64 64s28.704 64 64 64 64-28.704 64-64S804 0.38400000000001455 768.704 0.38400000000001455z"  horiz-adv-x="1024" />

    
    <glyph glyph-name="down" unicode="&#59139;" d="M231.168 357.856c12.512-12.544 32.8-12.48 45.24800001-0.032L480 560.992 480 0c0-17.664 14.336-32 32-31.99999999s32 14.336 32 31.99999999l0 563.04 234.048-235.456c12.48-12.576 32.704-12.64 45.248-0.128 12.544 12.448 12.608 32.704 0.12799999 45.248l-287.51999999 289.248c-3.168 3.2-6.88 5.53600001-10.816 7.136C521.088 670.88 516.704 672 512 672c-11.296 0-20.704-6.176-26.4-14.976l-254.368-253.952C218.688 390.624 218.688 370.36800000000005 231.168 357.856zM160 800L864 800c17.664 0 32-14.304 32-32s-14.336-32-32-32l-704 0c-17.696 0-32 14.304-32 32S142.304 800 160 800z"  horiz-adv-x="1024" />

    
    <glyph glyph-name="nvsheng" unicode="&#59162;" d="M864 480c0 194.08-157.92 352-352 352S160 674.08 160 480c0-183.392 141.024-334.304 320.32-350.4C480.288 129.024 480 128.57600000000002 480 128l0-64-128 0c-17.664 0-32-14.304-32-32s14.336-32 32-32l128 0 0-32c0-17.696 14.336-32 32-32s32 14.304 32 32l0 32 128 0c17.696 0 32 14.304 32 32s-14.304 32-32 32l-128 0 0 64c0 0.576-0.288 1.024-0.32 1.6C722.976 145.69600000000003 864 296.60799999999995 864 480zM512 192c-158.784 0-288 129.184-288 288 0 158.784 129.216 288 288 288 158.816 0 288-129.216 288-288C800 321.18399999999997 670.816 192 512 192z"  horiz-adv-x="1024" />

    
    <glyph glyph-name="nansheng" unicode="&#59164;" d="M954.19733333 801.28c-0.23893333 1.4336-0.34133333 2.90133333-0.85333333 4.3008 0 0 0 0-0.03413333 0.03413333-0.85333333 2.32106667-2.2528 4.23253333-3.584 6.28053334-0.03413333 0.06826667-0.06826667 0.1024-0.1024 0.17066666-0.88746667 1.36533333-1.29706667 2.8672-2.38933334 4.13013334-0.23893333 0.27306667-0.58026667 0.37546667-0.8192 0.64853333-1.70666667 1.8432-3.82293333 3.072-5.9392 4.5056 0 0.03413333-0.03413333 0.03413333-0.06826666 0.06826667-1.60426667 1.09226667-3.03786667 2.42346667-4.77866667 3.20853333 0 0 0 0-0.03413333 0C931.29386667 826.53866667 926.58346667 827.73333333 921.6 827.73333333l-238.93333333 0c-18.87573333 0-34.13333333-15.29173333-34.13333334-34.13333333s15.2576-34.13333333 34.13333334-34.13333333l148.61653333 0-162.88426667-143.63306667C605.66186667 662.9376 528.04266667 691.2 443.73333333 691.2 236.71466667 691.2 68.26666667 522.752 68.26666667 315.73333333000005s168.448-375.46666667 375.46666666-375.46666666 375.46666667 168.448 375.46666667 375.46666666c0 98.03093333-38.05866667 187.11893333-99.84 254.0544L887.46666667 717.99466667 887.46666667 588.8c0-18.8416 15.2576-34.13333333 34.13333333-34.13333333s34.13333333 15.29173333 34.13333333 34.13333333L955.73333333 793.6C955.73333333 796.33066667 954.81173333 798.72 954.19733333 801.28zM750.93333333 315.73333333000005c0-169.40373333-137.79626667-307.2-307.2-307.2-169.3696 0-307.2 137.79626667-307.2 307.2 0 169.3696 137.8304 307.2 307.2 307.2C613.13706667 622.93333333 750.93333333 485.10293333 750.93333333 315.73333333000005z"  horiz-adv-x="1024" />

    
    <glyph glyph-name="shanggan" unicode="&#59171;" d="M120.18748501 136.41713832000005c-18.16316453-0.16511967-32.69369614-14.92681884-32.62764827-33.08998338 0.03302394-18.16316453 14.82774704-32.89183976 32.99091156-32.95788763 3.79775258-0.03302394 93.82100076-1.42002923 174.99383421-90.32046359 6.50571529-7.166194 15.45520182-10.76580297 24.40468833-10.76580297 7.92574452 0 15.91753691 2.84005845 22.25813253 8.65227109 13.47376569 12.28490401 14.43145981 33.18905518 2.11353187 46.62979693C242.44209423 136.21899470000005 124.94293171 136.25201862999995 120.18748501 136.41713832000005zM884.59252002 134.86501334000002c-6.01035626 0.49535903-146.85744117 9.31274982-258.11507986-110.03575308-12.45002368-13.308646-11.69047316-34.21279718 1.65119677-46.66282086 6.34059562-5.94430839 14.46448375-8.88343865 22.52232401-8.88343865 8.85041471 0 17.63478156 3.50053716 24.14049685 10.50161149 89.59393702 96.09965231 200.22412094 89.49486521 205.01259159 89.19764978 17.93199697-1.45305317 33.98162963 12.41699975 35.26956311 30.58016427C916.39456991 117.72559081999998 902.78870849 133.51103197999998 884.59252002 134.86501334000002zM944.76213051 363.78693423000004c-25.62657395 62.58035777-79.32349307 119.4475747-125.32583523 163.0721935 41.1147997 29.85363769 71.59589217 68.45861829 90.8818705 115.15446309 5.54802116 13.34166994 1.71724465 28.76384782-9.37879768 37.97752583-105.31333031 87.67854875-283.80770169 148.87190124-433.9675364 148.87190122-124.73140438 0-217.26447166-40.45432099-267.6259733-116.9377556l0.0990718-0.06604786C189.07541446 699.11197529 176.49329503 675.33474174 161.69857193 631.14871604c-0.5614069-1.61817284-0.95769413-3.30239355-1.25490955-5.0196382C153.2114205 598.5540917000001 151.75836735 569.95536356 155.45704812 540.99337212c-0.09907181-1.08978987-0.62745477-2.01446007-0.59443084-3.13727386 0.13209575-13.37469388 6.86897858-330.40447468 310.06173041-592.18521139 6.24152381-5.38290149 13.90307685-8.02481633 21.56462988-8.02481634 9.27972588 0 18.49340388 3.86380045 24.99911918 11.45930562 11.92164072 13.80400504 10.40253968 34.64210834-3.4344893 46.56374906-132.39295742 114.3288647-203.36139481 241.10775308-241.83427967 343.54800101 108.12036483-109.40829831 270.66417536-186.68430738 389.97965433-203.22929907 1.51910103-0.23116755 3.03820207-0.33023936 4.55730309-0.33023935 11.19511414 0 21.72974956 5.68011691 27.83917763 15.25705819 32.9248637 51.61641118 46.82794054 104.85099521 40.88363216 147.91420711 7.36433762-0.19814361 14.66262736-0.29721542 21.99394103-0.29721542 102.53931973 0 169.6769806 20.30972033 172.48401512 21.16834265 8.85041471 2.74098665 16.14870446 9.08158226 20.11157673 17.43663795C948.03150013 345.52469788999997 948.29569161 355.20071099999996 944.76213051 363.78693423000004zM751.47303602 364.61253262c-23.11675485 0-46.56374906 1.12281381-69.61445603 3.40146536-13.87005291 1.35398136-26.84845956-6.01035626-32.9248637-18.42735602-6.0433802-12.41699975-3.69868078-27.24474679 5.81221266-37.25099924 14.95984278-15.65334542 13.87005291-59.21191635-11.0630184-107.2617425-126.15143361 25.06516705-300.78200453 120.57038851-382.41717309 243.35338069-37.74635828 56.73512119-50.13033409 111.02647115-36.78866414 161.3879728 0.16511967 0.66047871 0.33023936 1.32095742 0.46233509 1.94841219 4.35915949 11.59140136 23.48001814 52.8382968 28.79687175 62.64640565 0.29721542 0.39628723 0.59443084 0.82559838 0.85862233 1.25490954 47.45539531 72.0912512 141.70570724 87.21621366 212.44297707 87.21621366 124.69838044 0 276.11312471-48.71030486 371.48625045-117.89544973-19.74831343-35.10444344-49.43683144-63.14176467-88.53717108-83.55055682-9.54391736-4.98661426-16.04963265-14.332388-17.43663795-24.99911917-1.42002923-10.66673116 2.47679516-21.36648627 10.40253968-28.63175209 37.15192744-34.01465356 89.75905669-82.19657546 122.15553743-133.64786696C838.29296246 369.43402720999995 799.06052708 364.61253262 751.47303602 364.61253262z"  horiz-adv-x="1024" />

    
    <glyph glyph-name="aiqing" unicode="&#58970;" d="M876.74368 677.214065c-37.793768 32.534997-104.3363 67.992557-206.570729 52.566216-45.483914-6.895037-86.503143-23.606651-122.242112-49.480948-46.792723 42.701544-109.596094 74.583672-187.54542 74.583672-110.975511 0-201.944362-50.462299-256.076236-142.109602-54.832839-92.791359-70.773903-252.592902 64.767096-397.576971C354.962919 16.38543500000003 552.371988 14.094251999999983 560.693514 14.094251999999983c20.101827 0 36.368302 16.266475 36.462446 36.368302 0.093121 20.146852-16.197914 36.555567-36.323277 36.741809-1.728364 0.022513-175.297468 3.482311-338.349031 177.916109-107.937315 115.463732-97.232508 239.410672-55.230905 310.48952 51.841715 87.742367 133.624347 106.160855 193.132672 106.160855 46.372144 0 85.5924-16.175401 117.357871-39.336914l0.302899 0.490164c0 0 57.543577-36.859489 82.671884-102.5844 6.846942-14.794961 11.497868-28.42233 13.297864-38.963407 6.031367-35.854603 1.029446-68.530816-13.088086-85.241406-6.637164-7.853875-14.818497-11.522428-25.663496-11.522428-13.042037 0-21.947871 11.007705-26.085098 17.552771-12.387122 19.563568-18.46556 55.464219 1.497097 97.583502 4.721535 9.979282 9.745968 19.422352 15.075347 28.327162-12.131295 17.320481-30.549783 38.823214-53.431933 51.468209-9.980305-15.098883-19.423375-30.993898-27.696806-48.477085-27.346835-57.661258-26.294876-122.030287 2.75781-167.982876 20.73116-32.767288 52.775994-51.561329 87.883583-51.561329 32.160467 0 61.096497 13.276375 81.478709 37.421284 28.467355 33.704636 39.173185 86.410022 29.356608 144.633075-5.258771 31.039947-21.971407 72.082712-49.691749 111.465674 25.054629 16.829294 53.315276 27.697829 84.704171 32.419364 59.181891 9.021467 110.391203-3.343141 147.975193-35.667338 35.831067-30.783097 57.193607-77.809133 57.193607-125.771495 0-201.756073-259.346723-298.124911-270.38001-302.120922-18.97926-6.872524-28.79686-27.836999-21.924335-46.838771 6.872524-18.955724 27.860535-28.843932 46.816259-21.900799 118.339222 42.913369 318.600245 169.31522 318.600245 370.861516C959.393052 564.99933 928.492274 632.735038 876.74368 677.214065z"  horiz-adv-x="1024" />

    
    <glyph glyph-name="hot" unicode="&#59224;" d="M726.4 694.4c-12.8 9.6-28.8 6.4-38.4 0-9.6-9.6-16-25.6-9.6-38.4 6.4-12.8 9.6-28.8 12.8-44.8-86.4 201.6-230.4 246.4-236.8 249.6-9.6 3.2-22.4 0-28.8-6.4-9.6-6.4-12.8-19.2-9.6-28.8 12.8-86.4-25.6-188.8-115.2-310.4-6.4 25.6-16 51.2-32 80-9.6 9.6-22.4 16-35.2 12.8-16-3.2-25.6-12.8-25.6-28.8-3.2-48-25.6-92.8-51.2-140.8-22.4-41.6-44.8-86.4-54.4-134.4-32-153.6 35.2-265.6 224-368 6.4-3.2 9.6-3.2 16-3.2 9.6 0 19.2 6.4 25.6 12.8 9.6 16 6.4 35.2-9.6 44.8l-3.2 3.2c-188.8 105.6-214.4 192-192 297.6 9.6 41.6 28.8 76.8 48 118.4 12.8 19.2 22.4 38.4 28.8 57.6 0-9.6 3.2-22.4 3.2-32 0-12.8 9.6-25.6 22.4-28.8 12.8-3.2 25.6 0 35.2 9.6 112 134.4 172.8 256 179.2 364.8 51.2-32 137.6-108.8 182.4-272 3.2-9.6 9.6-19.2 22.4-22.4 9.6-3.2 22.4 0 28.8 6.4 25.6 22.4 38.4 54.4 41.6 86.4 54.4-67.2 115.2-176 108.8-288-6.4-92.8-57.6-172.8-150.4-243.2 35.2 166.4-32 358.4-179.2 457.6-9.6 6.4-22.4 6.4-32 3.2-9.6-6.4-16-16-16-28.8-3.2-89.6-48-144-89.6-198.4-35.2-44.8-70.4-89.6-76.8-150.4 0-16 12.8-32 28.8-35.2 19.2-3.2 32 12.8 35.2 28.8 3.2 41.6 32 76.8 60.8 115.2 35.2 44.8 76.8 99.2 96 176 115.2-108.8 153.6-300.8 83.2-435.2v-3.2c0-3.2 0-3.2-3.2-6.4v-12.8c0-3.2 0-3.2 3.2-6.4v-3.2l3.2-3.2c0-3.2 3.2-3.2 3.2-6.4 0 0 3.2-3.2 6.4-3.2l3.2-3.2s3.2 0 3.2-3.2h19.2c3.2 0 6.4 0 9.6 3.2 163.2 89.6 252.8 208 259.2 345.6 9.6 214.4-169.6 393.6-204.8 416z"  horiz-adv-x="1024" />

    
    <glyph glyph-name="sponsor" unicode="&#59261;" d="M653.81333334 661.568c-12.256 12.704-32.512 13.056-45.248 0.8l-76.256-73.6-73.344 73.216c-12.512 12.512-32.768 12.48-45.28-0.032-12.48-12.512-12.448-32.768 0.032-45.28l72.384-72.256-49.28 0c-17.664 0-32-14.336-32-32s14.336-32 32-32l63.776 0 0-32-63.776 0c-17.664 0-32-14.336-32-32s14.336-32 32-32l63.776 0 0-65.664c0-17.696 14.336-32 32-32 17.696 0 32 14.304 32 32l0 65.664 64.288 0c17.696 0 32 14.336 32 32s-14.304 32-32 32l-64.288 0 0 32 64.288 0c17.696 0 32 14.336 32 32s-14.304 32-32 32l-50.368 0 74.464 71.872C665.71733334 628.608 666.06933334 648.832 653.81333334 661.568zM929.01333334 158.01599999999996c-20.448 8.416-80.256 32.8-141.664 56.736 62.112 67.52 97.568 156.544 97.568 248.608 0 202.912-165.12 368-368.064 368-202.912 0-368-165.088-368-368 0-16.224 1.024-32.352 3.072-47.968 2.304-17.504 18.496-29.664 35.904-27.584 17.536 2.304 29.888 18.368 27.584 35.904-1.696 12.864-2.56 26.208-2.56 39.648 0 167.616 136.384 304 304 304 167.648 0 304.064-136.384 304.064-304 0-84.736-34.112-163.36-96.128-221.472-0.768-0.736-1.088-1.76-1.824-2.528-42.848 15.936-79.328 28.48-93.76 30.656-24.896 3.904-48.672-7.616-63.104-28.896-12.032-17.792-15.072-38.816-8.096-56.256 4.288-10.656 20.512-32.896 39.776-57.28-46.432 0.064-117.312 6.336-192.832 35.488-31.264 12.064-69.44 52.64-103.136 88.416-47.968 50.976-93.28 99.104-142.56 99.104-18.336 0-35.744-6.848-50.336-19.776-18.24-16.224-35.136-48.32-12-109.248 42.624-112.16 208.544-285.12 341.728-285.12l478.144 0c17.696 0 32 14.304 32 32l0 160C948.85333334 141.37599999999998 941.01333334 153.08799999999997 929.01333334 158.01599999999996zM884.85333334 0.41600000000005366l-445.12 0-1.024-32 0 32c-97.6 0-247.072 152.128-281.92 243.872-10.112 26.656-6.72 37.408-5.344 38.624 4.128 3.648 6.528 3.648 7.84 3.648 21.632 0 64.608-45.632 95.968-78.944 40.224-42.752 81.856-86.944 126.656-104.256 85.216-32.896 164.896-39.808 216.736-39.808 41.376 0 67.584 4.352 68.672 4.544 11.328 1.952 20.736 9.76 24.672 20.544 3.968 10.784 1.856 22.848-5.536 31.616-27.008 32.096-58.592 71.808-67.296 85.344 0.288 0.576 0.512 1.024 0.352 1.152 22.848-3.488 162.432-57.952 265.28-99.84L884.78933334 0.41600000000005366z"  horiz-adv-x="1024" />

    
    <glyph glyph-name="gongzuo" unicode="&#58900;" d="M850.14917333 691.21363437L680.96632558 691.21363437 680.96632558 747.07352849c0 30.86065891-25.23650732 55.85809032-56.39488356 55.8580903L398.99280793 802.93161969c-31.15837624 0-56.39488357-24.9974314-56.39488356-55.85809033l0-55.85989499L173.41507663 691.21363437c-62.2878836 0-112.78886609-50.02012406-112.7888661-111.71347492l0-502.71649952c0-61.69515467 50.5009825-111.71527873 112.7888661-111.71527872l676.7340967 0c62.2878836 0 112.78886609 50.02012406 112.7888661 111.71527872L962.93803943 579.50106135C962.93803943 641.19351031 912.43705693 691.21363437 850.14917333 691.21363437zM398.99280793 719.14403237c0 15.41634554 12.63223714 27.9294961 28.19744178 27.92949612l169.18374966 0c15.56520464 0 28.19744177-12.51315057 28.19744178-27.92949612l0-27.92949611L398.99280793 691.2145362599999 398.99280793 719.14403237zM906.54405776 76.78456183000003c0-30.86246361-25.23650732-55.859895-56.39488354-55.859895L173.41507663 20.92466682999998c-31.15837624 0-56.39488357 24.9974314-56.39488356 55.859895L117.02019307 384l285.94849531 0c-2.34023859-8.99467291-3.97587954-18.23654068-3.97587956-27.9294961 0-61.69335087 50.5009825-111.71347493 112.7888661-111.71347493 62.2878836 0 112.78886609 50.02012406 112.78886609 111.71347493 0 9.69295544-1.63564097 18.93482319-3.97587955 27.9294961l285.94849529 0L906.54315498 76.78456183000003zM455.38769237 356.07050389999995c0 10.22162891 2.9889014 19.6881386 7.81011877 27.9294961l97.16772668 0c4.82211926-8.24135752 7.81102066-17.70786719 7.81102065-27.9294961 0-30.86065891-25.23650732-55.85718842-56.39488355-55.85718843C480.62419971 300.21241268999995 455.38769237 325.20984497999996 455.38769237 356.07050389999995zM906.54405776 439.85538373L117.02019307 439.85538373 117.02019307 579.50106135c0 30.86065891 25.23650732 55.85718842 56.39488356 55.85718841l676.7340967 0c31.15837624 0 56.39488357-24.9974314 56.39488357-55.85718841L906.54405776 439.85538373z"  horiz-adv-x="1024" />

    
    <glyph glyph-name="radio" unicode="&#59183;" d="M512 1.2776992999999948c-211.04357071 0-382.7223007 171.67872998-382.7223007 382.7223007S300.95642929 766.7223007 512 766.7223007 894.7223007 595.04357071 894.7223007 384 723.04357071 1.2776992999999948 512 1.2776992999999948zM512 712.04768632c-180.89134016 0-328.04768632-147.15634616-328.04768632-328.04768632s147.15634616-328.04768632 328.04768632-328.04768632 328.04768632 147.15634616 328.04768632 328.04768632S692.89134016 712.04768632 512 712.04768632z"  horiz-adv-x="1024" />

    
    <glyph glyph-name="radiofill" unicode="&#59184;" d="M512 765.02790962c-210.08689311 0-381.02790962-170.93954628-381.02790962-381.02790962 0-210.11481475 170.91309403-381.02790962 381.02790962-381.02790962S893.02790962 173.88518524999995 893.02790962 384C893.02790962 594.08689311 722.11481475 765.02790962 512 765.02790962zM695.87011821 446.84825223L476.98061903 225.58102156999996c-0.05437306-0.05437306-0.16458937-0.0822947-0.21896328-0.16458938-0.0822947-0.05437306-0.0822947-0.16458937-0.1645894-0.21896329-1.75023436-1.69439107-3.90900343-2.73336337-5.93257412-3.88255117-1.01105065-0.57459432-1.83105968-1.44897637-2.89795274-1.8589813-3.28003604-1.31230863-6.75258311-1.99564905-10.22366081-1.99564906-3.49899935 0-7.02591945 0.68334042-10.33387715 2.05002211-1.09334535 0.46437799-1.96772742 1.39460332-3.00669971 1.96772741-2.0235707 1.1477184-4.12796671 2.16023843-5.87820107 3.88255116-0.05437306 0.05437306-0.0822947 0.16458937-0.13666774 0.21896329-0.05437306 0.0822947-0.16458937 0.0822947-0.21896331 0.16458938l-107.65483768 110.63361578c-10.52491879 10.82617592-10.27950324 28.13012925 0.54667267 38.65504804 10.82617592 10.49699716 28.10220846 10.3059555 38.65504805-0.54667268l88.21709733-90.65067211 199.28863883 201.47532951c10.60721349 10.74388123 27.93908761 10.85262817 38.65504804 0.21896331C706.36858475 474.89608682 706.47733171 457.59213349 695.87011821 446.84825223z"  horiz-adv-x="1024" />

    
    <glyph glyph-name="jiantou" unicode="&#58931;" d="M311.15496392-118.87022237999997c-5.72491576 0-11.47516174 1.92519276-16.21214889 5.85157296-10.7405486 8.96734534-12.18444265 24.92617875-3.24242956 35.69205961l384.32925373 461.0836462-386.27977773 471.26690235c-8.86601835 10.81654232-7.29546704 26.77537673 3.54640755 35.64139611 10.84187458 8.86601835 26.77537673 7.27013579 35.6413961-3.54640755l399.52814374-487.45371898c7.70076999-9.39797951 7.6501075-22.92499225-0.12665723-32.27230827l-397.75493948-477.1944691C325.61923978-115.77978231999998 318.39976747-118.87022237999997 311.15496392-118.87022237999997z"  horiz-adv-x="1024" />

    
    <glyph glyph-name="wangming" unicode="&#59326;" d="M771.2 512c0 160-128 288-288 288s-288-128-288-288c0-108.8 57.6-201.6 147.2-249.6-121.6-48-214.4-153.6-240-288-3.2-16 6.4-35.2 25.6-38.4h6.4c16 0 28.8 9.6 32 25.6 28.8 150.4 160 259.2 313.6 262.4h6.4c153.6 0 284.8 131.2 284.8 288z m-512 0c0 124.8 99.2 224 224 224s224-99.2 224-224c0-121.6-99.2-220.8-220.8-224H476.8c-121.6 6.4-217.6 105.6-217.6 224zM704 224c0-19.2 12.8-32 32-32h160c19.2 0 32 12.8 32 32s-12.8 32-32 32h-160c-16 0-32-12.8-32-32zM896 131.20000000000005h-249.6-3.2-3.2c-19.2 0-32-12.8-32-32s12.8-32 32-32h256c19.2 0 32 12.8 32 32s-12.8 32-32 32zM896 3.2000000000000455h-246.4-3.2-3.2c-19.2 0-32-12.8-32-32s12.8-32 32-32H896c19.2 0 32 12.8 32 32s-16 32-32 32z"  horiz-adv-x="1024" />

    
    <glyph glyph-name="news" unicode="&#59333;" d="M768 764.8L259.2 764.8c-54.4 0-96-41.6-96-96L163.2 32c0-54.4 41.6-96 96-96 6.4 0 12.8 3.2 16 3.2l236.8 147.2 240-147.2c6.4-3.2 9.6-3.2 16-3.2 54.4 0 96 41.6 96 96L864 668.8C864 723.2 822.4 764.8 768 764.8zM800 32c0-16-9.6-28.8-25.6-32l-246.4 150.4c-6.4 3.2-9.6 3.2-16 3.2-6.4 0-12.8 0-16-3.2l-243.2-150.4c-12.8 3.2-25.6 16-25.6 32L227.2 668.8c0 19.2 12.8 32 32 32L768 700.8c19.2 0 32-12.8 32-32L800 32zM672 576L352 576c-19.2 0-32-12.8-32-32s12.8-32 32-32l320 0c19.2 0 32 12.8 32 32S691.2 576 672 576zM672 448L352 448c-19.2 0-32-12.8-32-32s12.8-32 32-32l320 0c19.2 0 32 12.8 32 32S691.2 448 672 448zM672 320L352 320c-19.2 0-32-12.8-32-32s12.8-32 32-32l320 0c19.2 0 32 12.8 32 32S691.2 320 672 320z"  horiz-adv-x="1024" />

    
    <glyph glyph-name="close" unicode="&#59165;" d="M726.20070448 591.5829853299999c-10.94599559 10.94599559-28.14684581 10.94599559-39.0928414 0L517.4449331 421.92005534 347.7820031 591.5829853299999c-10.94599559 10.94599559-28.14684581 10.94599559-39.09284137 0s-10.94599559-28.14684581 0-39.0928403L478.3520917 382.82721503000005 309.4710191 213.94614132000004c-10.94599559-10.94599559-10.94599559-28.14684581 0-38.31098401 5.47299726-5.47299726 12.50970925-7.81856827 19.54642013-7.81856827s14.0734229 2.34556994 19.54642016 7.81856827l169.66292999 169.66292999 169.66292999-169.66292999c5.47299726-5.47299726 12.50970925-7.81856827 19.54642124-7.81856827s14.0734229 2.34556994 19.54642016 7.81856827c10.94599559 10.94599559 10.94599559 28.14684581 0 38.31098401L556.53777449 383.60907131l169.66292999 169.66293c10.94599559 10.16413822 10.94599559 28.14684581 0 38.31098402zM956.84846594 411.75591711c-0.78185628 14.85527919-14.0734229 26.58313215-28.92870208 25.80127479-14.85527919-0.78185628-26.58313215-13.29156553-25.80127478-28.9287021 0-7.03671092 0.78185628-13.29156553 0.78185629-20.32827752 0-215.01062599-174.35407095-389.36469696-389.36469696-389.36469587S124.17095255 173.28958736000004 124.17095255 388.30021228c0 215.01062599 174.35407095 389.36469696 389.36469586 389.36469696 57.07554789 0 111.80552582-11.72785188 163.40807537-35.96541409 5.47299726-2.34556994 11.72785188-5.47299726 17.20085022-8.60042456 13.29156553-7.03671092 29.71055946-1.56371366 36.74727143 11.72785187 7.03671092 13.29156553 1.56371366 29.71055946-11.72785295 36.74727037-6.25485462 3.12742731-13.29156553 7.03671092-20.32827751 10.16413931-58.63926154 27.36498842-121.18780667 40.65655504-186.08192284 40.65655396-244.72118437 0-444.09467381-199.37348944-444.09467382-444.09467382s199.37348944-444.09467381 444.09467382-444.0946738 444.09467381 199.37348944 444.09467381 444.0946738c0.78185628 7.81856827 0.78185628 15.63713656 0 23.45570483zM910.71891365 516.52473095m-29.71055947 0a29.71055946 29.71055946 0 1 1 59.42111892 0 29.71055946 29.71055946 0 1 1-59.42111892 0ZM866.93493129 612.69312021m-29.71055836 0a29.71055946 29.71055946 0 1 1 59.42111781 0 29.71055946 29.71055946 0 1 1-59.42111781 0ZM795.7859605 694.78808658m-29.71055836 0a29.71055946 29.71055946 0 1 1 59.42111782 0 29.71055946 29.71055946 0 1 1-59.42111782 0Z"  horiz-adv-x="1024" />

    
    <glyph glyph-name="mobile" unicode="&#59167;" d="M720.02529023 829.0986229H311.67097877c-57.578715 0-104.55082546-46.97211047-104.55082547-104.55082547v-686.39889819c0-57.578715 46.97211047-104.55082546 104.55082547-104.55082546h408.35431146c57.578715 0 104.55082546 46.97211047 104.55082546 104.55082546V725.30541265c0 57.578715-46.97211047 103.79321131-104.55082546 103.79321025z m-408.35431146-53.03302689h408.35431146c28.03174281 0 51.51779857-22.72844054 51.51779857-51.51779858v-528.81504479H260.15318124V725.30541265c0 28.03174281 23.4860547 50.76018335 51.51779753 50.76018336z m408.35431146-789.43449429H311.67097877c-28.03174281 0-51.51779857 22.72844054-51.51779753 51.51779752v104.55082547h511.38990756v-104.55082547c0-28.03174281-22.72844054-51.51779857-51.51779857-51.51779752zM552.59244645 94.21238592999998h-73.48862391c-14.39467849 0-26.51651344-12.12183496-26.51651344-26.51651345s12.12183496-26.51651344 26.51651344-26.5165145h73.48862391c14.39467849 0 26.51651344 12.12183496 26.51651345 26.5165145s-11.36421975 26.51651344-26.51651345 26.51651345zM415.46419006 688.93990777m-28.78935802 0a28.78935803 28.78935803 0 1 1 57.578715 0 28.78935803 28.78935803 0 1 1-57.578715 0ZM516.22694158 688.93990777m-28.78935699 0a28.78935803 28.78935803 0 1 1 57.57871501 0 28.78935803 28.78935803 0 1 1-57.57871501 0ZM616.98969413 688.93990777m-28.78935802 0a28.78935803 28.78935803 0 1 1 57.57871605 0 28.78935803 28.78935803 0 1 1-57.57871605 0Z"  horiz-adv-x="1024" />

    
    <glyph glyph-name="jingdian" unicode="&#59140;" d="M883.54322356 504.12860856l-366.05328304-444.07339885L151.51299812 503.82324607c-4.38958577 5.34384356-6.48895288 19.84856175-3.81703112 26.33751463l67.44693965 163.21625007c2.21387803 5.38201386 12.0999886 11.98547768 17.94004619 11.98547767h568.96665661c5.72554666 0 15.76433846-6.71797475 17.9400462-11.98547767l67.44693965-162.98722821c2.78643271-6.71797475 0.76340622-20.6883086-3.81703112-26.261174m74.35576594 55.46146196L890.49022017 722.61546904C876.48171601 756.28168339 838.46408621 781.70311056 802.01143914 781.70311056H233.00661223c-36.49081737 0-74.5466175-25.45959748-88.47878104-59.20215245L77.08089154 559.2847080199999c-13.35960887-32.36842377-6.71797475-77.06585802 15.49714629-104.01409761l371.09176411-449.95162675c13.74131198-16.60408531 33.36085186-26.14666308 53.82013858-26.14666308h0.03817032c20.49745703 0 40.11699692 9.58074808 53.82013859 26.18483339l371.09176409 450.21881892c22.59682414 27.36811303 29.08577703 71.1112895 15.49714629 104.01409763M651.12419954 552.6812442099999h-267.1921774a38.17031106 38.17031106 0 0 1 0-76.34062211h267.1921774a38.17031106 38.17031106 0 0 1 0 76.34062211"  horiz-adv-x="1024" />

    
    <glyph glyph-name="tuijian" unicode="&#58880;" d="M458.099087 896L0.072616 437.973529l0-480.241194 85.732335-85.732335 0 171.464669 766.802996 766.802996 171.319437 0-85.659138 85.659138 0.073197 0.072035L458.099087 895.998838zM230.136752 411.907247l-0.613461-1.436056c-1.597555-3.74583-4.678802-8.892861-9.419182-15.73388-2.453844-4.947191-4.426679-8.7302-5.9034-11.332762l54.672387-54.672387c7.417301-6.874713 11.276993-13.876069 11.407121-20.747297 0.124319-6.656284-3.20789-13.155717-9.94318-19.363524-2.89535-3.903843-8.121387-9.657363-15.255195-16.791171l-1.634734-1.634734-1.634734 1.634734c-2.425959 2.425959-6.689978 5.681485-12.672384 9.671305-1.997234 0.972475-3.74583 2.150599-4.949515 3.353122l-1.634734 1.634734 8.530361 8.530361c4.274475 3.246231 7.028079 5.495588 8.428117 6.895627 2.694349 2.694349 4.059532 5.086614 3.94567 6.921188-0.073197 1.196714-0.793549 2.313259-2.201721 3.4147l-49.412656 49.387095c-5.033169-8.816178-9.912972-17.935601-14.522062-27.149134l-1.293148-2.58281-20.753106 16.979392 1.229246 1.755567c6.745747 9.637612 12.616615 19.342611 17.46621 28.869846l-42.389225 42.389225L118.598391 398.914189l-16.293896 16.293896 22.986197 22.986197-35.24496 35.24496 17.060722 17.060722 35.24496-35.24496 20.68688 20.68688 16.293896-16.293896-20.68688-20.68688 38.416832-38.416832c1.401201 2.334173 3.192786 5.318986 5.366622 8.954439 4.087416 7.155883 6.806164 12.342417 8.286371 15.810563l1.341946 3.146311 8.547789-8.547789c4.087416-3.053363 6.843343-5.310853 8.428117-6.895627L230.136752 411.907247zM424.512098 465.776789l-101.903073-101.903073 13.791254-13.791254-17.060722-17.060722-113.471693 113.471693c0.248638-1.235055 0.517027-2.573515 0.807491-4.009572 0.526322-5.717503 1.029406-9.757283 1.533652-12.261087l0.55653-2.769869-2.823315 0.001162c-6.196188 0-12.701431 0.260256-19.333316 0.772636l-1.941465 0.14988-0.182412 1.941465c-3.542505 37.889349-13.017456 74.509949-28.162274 108.845174l-0.905087 2.050679 22.006751 10.527595 14.203713-42.609978 39.12208 39.12208c-12.672384 3.829484-25.512076 6.759689-38.186785 8.713934l-2.504966 0.384575 5.701237 22.809595 2.007691-0.223077c13.730837-1.525519 27.482587-3.860854 40.871838-6.942101l2.315583-0.532131-4.904202-18.909238 47.273675 47.273675 15.528231-15.528231L252.88593 539.3305290000001l25.846691-25.84553 43.673078 43.673078 15.528231-15.528231-43.673078-43.673078 25.846691-25.846691 43.673078 43.673078 15.528231-15.528231-43.673078-43.673078 25.846691-25.846691 49.036214 49.036214L424.512098 465.776789zM583.879503 692.569133l-46.738059-46.738059 22.117128-22.117128c7.535811-7.022269 11.454757-14.483721 11.588371-22.120613 0.141747-8.12952-4.013057-16.479793-12.355197-24.820771-5.602479-6.614457-15.43993-16.972421-29.114998-30.647488l-1.461617-1.461617-1.614983 1.289662c-5.055244 4.03978-10.942378 8.390938-17.496419 12.931479l-2.274918 1.578965 11.151512 11.151512c11.72547 10.678636 18.76052 17.228029 22.219371 20.68688 0.580929 0.511217 1.010816 0.910897 1.410496 1.311738 2.499156 2.499156 3.72724 4.934411 3.647072 7.236051-0.089463 2.535174-1.75092 5.224875-4.939058 7.993583l-19.938644 19.929349-57.464331-57.464331-15.528231 15.528231 57.464331 57.464331-7.681043 7.681043 8.594263 40.326927-71.964318-71.964318-16.293896 16.293896 100.57507 100.57507 14.728873-14.728873-9.601594-59.828712 45.441425 45.441425L583.879503 692.569133zM481.210765 796.770362L432.940215 748.500974l14.55808-14.55808-17.060722-17.060722-14.55808 14.55808-48.066063-48.066063 10.600792-10.600792 10.822707 8.852196 0.582091-4.05256c0.328806-2.295831 0.884174-4.606767 1.657971-6.90376l105.617533 105.617533 17.060722-17.060722-114.071211-114.071211c3.85853-13.72619 6.809649-27.554623 8.778999-41.141389l89.201642-89.201642-17.060722-17.060722-68.618167 68.618167c0.678525-14.67078 0.56931-30.73579-0.328806-47.848795l-0.184735-3.518106-3.152121 1.56967c-1.7637 0.879526-4.857728 1.575479-9.193782 2.071593-6.293784 1.246674-9.153117 1.510415-10.476473 1.518548l-2.493347 0.01278 0.203325 2.485214c2.909292 35.887468 0.431049 70.115802-7.365017 101.804315l-42.432213-42.432213-17.060722 17.060722 52.038455 52.038455c-0.752884 2.904645-1.647515 5.978921-2.66995 9.179839l-7.023431-7.023431-12.258763 12.258763-49.036214-49.036214-16.293896 16.293896 49.036214 49.036214-16.856235 16.856235 17.826386 17.826386 16.856235-16.856235 48.066063 48.066063-16.856235 16.856235 17.060722 17.060722 16.856235-16.856235 48.27055 48.27055L481.210765 796.770362zM344.424906 413.674435l-35.806424-35.806424-25.845955 25.845955 35.806424 35.806424 25.845955-25.845955ZM303.05018 455.049482l-35.806424-35.806424-25.845955 25.845955 35.806424 35.806424 25.845955-25.845955ZM261.67557 496.422886l-35.806424-35.806424-25.845955 25.845955 35.806424 35.806424 25.845955-25.845955Z"  horiz-adv-x="1024" />

    
    <glyph glyph-name="rensheng" unicode="&#58887;" d="M528.5375323-69.82065380999995c-18.07590739 0-32.81866844 14.74276104-32.81866844 32.81866845V104.52852361999999c0 18.07590739 14.74276104 32.81866844 32.81866844 32.81866937 18.07590739 0 32.81866844-14.74276104 32.81866844-32.81866938v-141.53050898c0-18.07590739-14.74276104-32.81866844-32.81866844-32.81866844z m0 408.18219226c-18.07590739 0-32.81866844 14.74276104-32.81866844 32.81866937v108.71183962c0 18.07590739 14.74276104 32.81866844 32.81866844 32.81866937 18.07590739 0 32.81866844-14.74276104 32.81866844-32.81866937V371.18020781999996c0-18.07590739-14.74276104-32.81866844-32.81866844-32.81866937z m-0.51279139 381.51702422h-0.25639616c-18.07590739 0.12819762-32.69047083 14.9991572-32.56227321 33.07506461l0.51279232 51.27917054c0.12819762 18.07590739 14.87095958 32.56227321 32.81866844 32.56227228h0.25639616c18.07590739-0.12819762 32.69047083-14.9991572 32.56227228-33.0750646l-0.51279139-51.27916962c-0.12819762-18.07590739-14.87095958-32.56227321-32.81866844-32.56227321z m0 0M904.54204606 713.2122709H237.78463884c-18.07590739 0-32.81866844 14.74276104-32.81866843 32.81866844 0 18.07590739 14.74276104 32.81866844 32.81866843 32.81866937h666.88560484c18.07590739 0 32.81866844-14.74276104 32.81866843-32.81866937-0.12819762-18.07590739-14.74276104-32.81866844-32.94686605-32.81866844z m0-265.6261005H237.78463884c-18.07590739 0-32.81866844 14.74276104-32.81866843 32.81866937 0 18.07590739 14.74276104 32.81866844 32.81866843 32.81866843h666.88560484c18.07590739 0 32.81866844-14.74276104 32.81866843-32.81866843-0.12819762-18.07590739-14.74276104-32.81866844-32.94686605-32.81866938z m0-1e-8M231.75933607 453.61147317c-9.23025059 0-18.33230355 3.84593774-24.87039679 11.28141707L92.9209835 596.29576348c-11.922407 13.71717826-10.38403191 34.35704354 3.33314636 46.27945054s34.35704354 10.38403191 46.27945054-3.33314543l113.96795577-131.40287323c11.922407-13.71717826 10.38403191-34.48524209-3.33314635-46.27945054-5.89710423-5.12791668-13.4607821-7.94827165-21.40905375-7.94827165z m0 0M117.79138122 584.8861478599999c-7.82007311 0-15.51194859 2.82035404-21.40905375 7.94827164-13.71717826 11.79420939-15.25555336 32.56227321-3.33314543 46.27945055l110.63480849 128.06972688c11.79420939 13.71717826 32.56227321 15.25555336 46.27945147 3.33314636 13.71717826-11.79420939 15.25555336-32.56227321 3.33314543-46.27945055l-110.63480848-128.06972688c-6.53809417-7.43547933-15.64014714-11.28141707-24.87039773-11.281418z m786.75066484-134.35142488c-9.23025059 0-18.33230355 3.84593774-24.87039772 11.28141706l-113.96795484 131.40287324c-11.922407 13.71717826-10.38403191 34.35704354 3.33314543 46.27945055s34.48524209 10.38403191 46.27945147-3.33314543l113.96795484-131.40287323c11.922407-13.71717826 10.38403191-34.35704354-3.33314635-46.27945055-5.89710423-5.12791668-13.4607821-7.94827165-21.40905283-7.94827164z m0 0M790.57409029 581.8093976600001c-7.82007311 0-15.51194859 2.82035404-21.40905282 7.94827165-13.71717826 11.79420939-15.25555336 32.56227321-3.33314636 46.27945055l110.63480942 128.06972688c11.79420939 13.71717826 32.56227321 15.25555336 46.27945054 3.33314635 13.71717826-11.79420939 15.25555336-32.56227321 3.33314636-46.27945054l-110.63480941-128.06972689c-6.53809417-7.43547933-15.64014714-11.28141707-24.87039773-11.281418z m-4.87152052-241.9094841H118.81696494c-18.07590739 0-32.81866844 14.74276104-32.81866937 32.81866937 0 18.07590739 14.74276104 32.81866844 32.81866937 32.81866844h666.88560483c18.07590739 0 32.81866844-14.74276104 32.81866844-32.81866844 0-18.07590739-14.74276104-32.81866844-32.81866844-32.81866938z m0-265.62609958H118.81696494c-18.07590739 0-32.81866844 14.74276104-32.81866937 32.81866844 0 18.07590739 14.74276104 32.81866844 32.81866937 32.81866844h666.88560483c18.07590739 0 32.81866844-14.74276104 32.81866844-32.81866844 0-18.07590739-14.74276104-32.81866844-32.81866844-32.81866844z m0 0M791.599674 80.29911583c-7.94827165 0-15.51194859 2.82035404-21.53725137 8.07646926-13.71717826 11.922407-15.12735482 32.56227321-3.33314636 46.27945147l114.09615339 131.4028723c11.922407 13.71717826 32.56227321 15.12735482 46.27945055 3.33314636 13.71717826-11.922407 15.12735482-32.56227321 3.33314635-46.27945054L816.47007172 91.70873144999996c-6.53809417-7.56367787-15.64014714-11.40961562-24.87039772-11.40961562z m0 0M905.56762884 211.57379145000004c-9.23025059 0-18.33230355 3.84593774-24.87039679 11.40961468l-110.63480942 128.06972688c-11.79420939 13.71717826-10.38403191 34.48524209 3.33314635 46.27945147 13.71717826 11.79420939 34.48524209 10.38403191 46.27945055-3.33314635l110.63480942-128.06972687c11.79420939-13.71717826 10.38403191-34.48524209-3.33314636-46.27945055-5.89710423-5.25611523-13.4607821-8.07646927-21.40905375-8.07646926zM118.81696494 77.22236563000001c-7.94827165 0-15.51194859 2.82035404-21.53725137 8.07646926-13.71717826 11.922407-15.12735482 32.56227321-3.33314636 46.27945148l113.96795484 131.40287231c11.922407 13.71717826 32.56227321 15.12735482 46.27945148 3.33314635 13.71717826-11.922407 15.12735482-32.56227321 3.33314542-46.27945054L143.68736172 88.50378363000004c-6.53809417-7.43547933-15.64014714-11.28141707-24.87039678-11.281418z m0 0M232.78491977 208.49704125000005c-9.23025059 0-18.33230355 3.84593774-24.87039772 11.40961469l-110.63480848 128.06972688c-11.79420939 13.71717826-10.38403191 34.48524209 3.33314542 46.27945148 13.71717826 11.79420939 34.48524209 10.38403191 46.27945147-3.33314636l110.63480849-128.06972688c11.79420939-13.71717826 10.38403191-34.48524209-3.33314542-46.27945054-5.89710423-5.25611523-13.4607821-8.07646927-21.40905376-8.07646927z m0 0"  horiz-adv-x="1024" />

    
    <glyph glyph-name="article" unicode="&#58882;" d="M512 767.684a32.726 32.726 0 0 1-14.67-3.385L137.514 577.818c-5.19-2.709-8.576-6.658-8.576-10.1 0-3.386 3.385-7.335 8.576-10.1L497.33 371.30600000000004c8.858-4.514 20.595-4.514 29.453 0l359.703 186.368c5.19 2.709 8.52 6.658 8.52 10.157 0 3.385-3.33 7.335-8.464 10.043L526.67 764.299A32.726 32.726 0 0 1 512 767.74z m30.3-426.452h0.564-0.564zM512 300.155c-15.799 0-31.71 3.668-45.816 11.003L106.48 497.526c-27.873 14.445-45.139 41.36-45.139 70.248 0 28.89 17.266 55.86 45.14 70.248L466.183 824.39a101.225 101.225 0 0 0 91.632 0L917.52 638.0219999999999c27.873-14.445 45.139-41.359 45.139-70.248 0-28.889-17.266-55.803-45.14-70.248L557.817 311.21500000000003c-14.106-7.336-29.904-11.003-45.816-11.003zM512 119.99400000000003c-16.589 0-33.12 3.78-47.96 11.454L79.567 330.68100000000004a33.798 33.798 0 0 0-14.444 45.59 33.685 33.685 0 0 0 45.59 14.501l384.473-199.12a37.07 37.07 0 0 1 33.572 0L913.23 390.83a33.798 33.798 0 1 0 31.146-60.148L559.904 131.50400000000002A104.948 104.948 0 0 0 512 119.93700000000001M512-67.38999999999999c-16.589 0-33.12 3.78-47.96 11.454L79.567 143.24099999999999a33.91 33.91 0 0 0 31.146 60.204l384.473-199.177a37.24 37.24 0 0 1 33.572 0L913.23 203.44500000000005a33.91 33.91 0 0 0 31.146-60.204L559.904-55.936000000000035A104.948 104.948 0 0 0 512-67.38999999999999"  horiz-adv-x="1024" />

    
    <glyph glyph-name="mingren" unicode="&#58881;" d="M848.20946334-18.561773740000035c-15.43559385-15.88760897-48.88264852-42.36764525-74.60829428-37.0693676-64.31617839 10.59139531-48.87955253 187.99907281-92.61562711 227.72067523-12.86282288 10.59036332-28.29738474-29.12607912-38.58950063-10.59449131-5.14863795 10.59449131 18.00836483 47.66179492 33.44292669 63.55043588 12.86282288 15.88760897 28.29944873 21.18175863 48.88264852 13.24053414 46.30884555-21.18175863 28.29738474-182.70492315 69.46172033-209.18392744 12.86282288-7.94638448 102.90464701 113.86033762 97.76220106 161.52110053-5.14657395 15.88657698-23.15700277 13.24053414-38.59053263 13.24053414-18.00836483 0 15.43352985 39.72057042 38.59053263 50.30990174 10.28901991 7.94328848 64.31514638 21.18175863 69.46275233-37.0693676 5.14141396-60.90336105-43.73607458-140.3393419-43.73607458-140.3393419-18.00939683-31.77521794-46.30987755-71.49682036-69.46275233-95.32565382z m0 0M469.29269842 229.18806349c163.06692063 0 295.98780952 137.23631746 295.98780952 305.64977778 0 168.96-132.9168254 305.6751746-295.98374603 305.6751746-163.072 0-295.99492063-136.71415873-295.99492063-305.67009524 0-56.86653968 15.37320635-112.64812698 43.95073016-160.77714285 26.49193651-44.84469841 64.08330159-81.46692063 108.544-107.17257143-58.75707937-24.58006349-112.25193651-63.98984127-155.14209524-114.27047619-45.53650794-53.60050794-77.82196825-118.08203175-93.70615873-187.02019048v-0.5384127c-3.16546032-15.85777778 5.81993651-36.66996825 23.81409524-40.48761904h6.36139682c16.42260317 0 29.11898413 10.92063492 32.30476191 26.82514285 37.06920635 160.77206349 174.73219048 277.7864127 327.75923809 277.7864127h2.11098413-0.00711111zM238.95568255 535.38031746c0 131.23352381 103.2584127 237.86260317 230.34209523 237.86260317 127.07250794 0 230.336-106.63415873 230.336-237.86260317 0-131.23047619-103.2584127-237.888-230.336-237.888-127.08368254-0.5384127-230.34209524 106.65346032-230.34209523 237.888z"  horiz-adv-x="1024" />

    
    <glyph glyph-name="qianming" unicode="&#58891;" d="M597.414 763.707c-67.692-67.693-65.745-180.073 5.178-250.997 70.924-70.922 183.302-72.87 250.995-5.177 11.661 11.662 21.39 24.761 29.052 38.978L636.386 792.76c-14.212-7.662-27.311-17.392-38.972-29.052zM965.29 562.806l-8.04-21.17c-11.861-31.23-30.138-59.642-54.131-83.635-95.393-95.392-252.086-92.678-350.004 5.234-97.912 97.918-100.627 254.61-5.234 350.004 23.993 23.993 52.406 42.27 83.635 54.13l21.17 8.041L965.29 562.806z m0 0M723.948 332.338c6.776 18.093 26.943 27.27 45.037 20.495 18.099-6.77 27.276-26.927 20.5-45.02l-91.618-244.626a34.983 34.983 0 0 0-26.615-22.164L105.64-59.962c-22.964-4.102-43.438 14.985-40.945 38.168l58.68 545.716a34.957 34.957 0 0 0 17.709 26.79l260.243 145.496c16.864 9.435 38.183 3.406 47.611-13.452 9.433-16.86 3.411-38.17-13.458-47.602l-244.46-136.675-51.76-481.377 500.066 89.284 84.628 225.953h-0.007z m0 0M340.81 267.569c13.597 13.72 35.731 13.806 49.436 0.194 13.709-13.613 13.79-35.772 0.194-49.491L133.63-40.804c-13.596-13.72-35.73-13.806-49.44-0.194-13.704 13.613-13.79 35.767-0.189 49.487l256.809 259.08z m0 0M431.614 183.059c-66.294 0-120.03 53.741-120.03 120.03 0 66.294 53.736 120.036 120.03 120.036 66.295 0 120.036-53.742 120.036-120.035 0-66.288-53.741-120.031-120.036-120.031z m0 69.838c27.727 0 50.2 22.472 50.2 50.193 0 27.725-22.473 50.198-50.2 50.198-27.72 0-50.193-22.473-50.193-50.198 0.001-27.72 22.472-50.193 50.193-50.193z"  horiz-adv-x="1024" />

    
    <glyph glyph-name="gexing" unicode="&#58892;" d="M348.13 433.57a34.615 34.615 0 0 1-24.507-59.055l48.946-48.946a34.754 34.754 0 0 1 49.016-0.069 34.615 34.615 0 0 1 0 48.946l-48.947 48.946a34.615 34.615 0 0 1-24.507 10.177z m147.878 147.876a34.615 34.615 0 0 1-24.508-59.054l48.946-48.946a34.477 34.477 0 1 1 49.016 48.877l-48.947 48.946a34.615 34.615 0 0 1-24.507 10.177z m27.554-331.27a99.122 99.122 0 0 0-19.247 1.87 34.615 34.615 0 0 0 13.5 67.985c12.67-2.7 28.939 3.53 40.916 15.507 12.392 12.462 18.554 28.8 15.577 41.747a34.615 34.615 0 0 0 67.569 15.161c8.1-36.07-4.985-76.638-34.13-105.784a120.877 120.877 0 0 0-84.185-36.485zM560.185-61.153999999999996a34.615 34.615 0 0 0-23.608 9.346L348.615 123.97000000000003 95.646 171.04600000000005a34.477 34.477 0 0 0-25.061 48.67l109.107 233.1-33.438 255.115a34.615 34.615 0 0 0 9.692 28.938 35.792 35.792 0 0 0 28.87 9.9l255.392-31.707 232.269 110.63a34.615 34.615 0 0 0 48.877-24.715l48.738-252.623 177.093-186.785a34.823 34.823 0 0 0-8.377-54.069L713.53 183.09199999999998 590.646-43.085000000000036a34.615 34.615 0 0 0-30.461-18.069zM152.277 230.86199999999997l218.908-40.708a33.08 33.08 0 0 0 17.307-8.723l162.623-152.1 106.408 195.715a35.308 35.308 0 0 0 13.708 13.708l194.884 107.723-153.207 161.585a35.446 35.446 0 0 0-8.862 17.307L661.885 744l-201.047-95.746a34.408 34.408 0 0 0-19.176-3.116l-220.985 27.416 28.938-220.777a34.615 34.615 0 0 0-2.907-19.177l-94.431-201.738z"  horiz-adv-x="1024" />

    
    <glyph glyph-name="lizhi" unicode="&#58893;" d="M937.864 472.881c-22.961 37.157-62.757 60.62-106.736 63.045a59.62 59.62 0 0 1-8.328 0.574l-151.797 0.122a394.927 394.927 0 0 1 9.993 88.422c0 28.147-3.209 56.986-9.534 85.722a29.935 29.935 0 0 1-1.924 5.855c-15.778 57.147-67.198 96.582-126.946 96.582-72.633 0-131.728-59.095-131.728-131.729 0-3.326 0.13-6.652 0.404-9.987-2.192-57.06-32.025-109.653-80.055-140.99-14.41-9.4-18.476-28.694-9.077-43.103 9.388-14.4 28.678-18.486 43.107-9.078 65.635 42.815 106.147 115.02 108.368 193.171a32.977 32.977 0 0 1-0.142 3.983 59.26 59.26 0 0 0-0.307 6.004c0 38.278 31.152 69.43 69.429 69.43 32.492 0 60.313-22.143 67.647-53.855 0.355-1.53 0.822-3.01 1.397-4.442 4.685-22.752 7.056-45.455 7.056-67.563 0-37.387-6.204-74.153-18.442-109.298a31.147 31.147 0 0 1 29.394-41.394l192.713-0.102c1.423-0.263 2.849-0.424 4.29-0.472 24.052-0.999 45.81-13.583 58.448-34.002 7.816-12.28 11.41-26.73 10.402-41.826a29.298 29.298 0 0 1-0.107-2.873c0-0.853 0.038-1.69 0.107-2.524 0.01-0.335-0.029-0.662-0.107-0.973-0.102-0.375-0.195-0.77-0.287-1.155L820.33 60.91a31.725 31.725 0 0 1-2.444-4.032c-5.922-11.73-14.62-21.427-25.279-28.098a71.236 71.236 0 0 0-35.661-11.036c-0.853 0.064-512.397 0.225-512.397 0.225-0.467 0.02-0.935 0.033-1.397 0.033 0 0-110.72-0.176-112.42-0.457-1.928 0-3.437 1.5-3.437 3.403l0.296 415.229c0 1.894 1.544 3.437 3.01 3.447l1.242-0.12c1.169-0.133 2.644-0.289 3.515-0.197l83.606 0.225v-338.464c0-17.205 13.942-31.147 31.152-31.147s31.151 13.943 31.151 31.147V471.372c0 17.21-13.941 30.845-31.151 30.845-1.5 0-117.236-0.302-119.086-0.302-36.246 0-65.738-29.486-65.738-65.718l-0.297-415.224c0-36.24 29.491-65.728 65.737-65.728 2.538 0 111.11 0.452 111.11 0.452 0.458-0.02 0.92-0.028 1.378-0.028l511.14-0.273c25.401 0 50.164 7.178 71.46 20.677 19.557 12.247 35.68 29.798 46.716 50.83 3.648 5.606 6.418 11.844 8.23 18.565 0.113 0.419 0.215 0.822 0.307 1.236l74.683 329.46a65.572 65.572 0 0 1 1.998 18.945c1.585 27.965-5.34 54.93-19.89 77.772z m0 0M436.554 376.609c-20.885 0-37.806-16.921-37.806-37.8v-36.885c0-20.886 16.921-37.806 37.806-37.806 20.881 0 37.803 16.921 37.803 37.806V338.81c0.001 20.88-16.92 37.799-37.803 37.799z m295.065 0c-20.88 0-37.8-16.921-37.8-37.8v-36.885c0-20.886 16.92-37.806 37.8-37.806 20.887 0 37.807 16.921 37.807 37.806V338.81c0.001 20.88-16.92 37.799-37.807 37.799z m-54.301-171.203c-17.317 11.372-40.662 6.536-52.24-10.603-0.158-0.236-16.478-23.913-41.359-23.913-24.196 0-39.249 21.903-40.265 23.44-11.106 17.464-34.202 22.765-51.85 11.825-17.732-11.022-23.186-34.332-12.17-52.069 13.576-21.844 50.798-58.805 104.285-58.805 53.21 0 90.904 36.696 104.787 58.362 11.157 17.431 6.093 40.38-11.188 51.763z m0 0"  horiz-adv-x="1024" />

    
    <glyph glyph-name="jiaoshi" unicode="&#58896;" d="M542.327 213.183c-3.88 11.473-14.386 18.901-25.483 18.901-11.638 0-22.147-7.428-25.484-18.901l-60.395-173.344c-3.312-10.299-1.102-21.204 6.116-29.196l60.37-64.602c5.007-5.735 12.2-8.652 19.96-8.652s14.386 2.912 19.938 8.652l60.365 64.602c7.242 7.992 9.45 18.902 6.114 29.195l-61.5 173.346z m-25.484-207.1l-28.797 30.89 28.797 82.942 28.82-82.941-28.821-30.89zM519.14 235.732c159.956 0 290.339 134.616 290.339 299.817 0 165.738-130.378 299.844-290.338 299.844s-290.343-134.106-290.343-299.84c0-55.78 15.076-110.499 43.11-157.707 25.986-43.99 62.858-79.915 106.474-105.129-57.636-24.112-110.112-62.767-152.184-112.092-44.667-52.576-76.34-115.83-91.92-183.45v-0.528c-3.106-15.558 5.71-35.97 23.362-39.716h6.238c16.11 0 28.563 10.711 31.69 26.315 36.363 157.704 171.398 272.486 321.505 272.486h2.068z m-225.945 300.35c0 128.73 101.287 233.325 225.946 233.325 124.65 0 225.945-104.6 225.945-233.325S643.795 302.733 519.141 302.733c-124.655-0.528-225.946 104.619-225.946 233.349zM900.37-23.881v1.056c-23.362 99.22-79.472 185.034-157.355 241.897l-20.804 15.031-0.528 0.528c-16.046 10.183-35.265 5.335-44.654-10.71-9.83-16.66-5.159-36.498 9.876-46.153l20.23-14.503c67.525-48.224 113.763-120.677 131.967-203.81 3.087-16.047 15.558-26.803 31.65-26.803h7.316l2.555 1.59c15.076 9.7 22.347 25.213 19.747 41.877z"  horiz-adv-x="1024" />

    
    <glyph glyph-name="zheli" unicode="&#58897;" d="M512-67.39300000000003c-69.966 0-130.453 74.029-166.113 202.676-4.062 14.896 4.514 30.694 19.862 34.757 14.896 4.062 30.694-4.514 34.757-19.41 27.084-97.952 71.32-161.599 111.945-161.599 37.015 0 76.286 51.91 103.82 134.515-37.465 11.285-76.285 26.181-115.556 44.237-13.993 6.32-20.312 23.472-13.993 37.465 6.32 13.994 23.472 20.313 37.466 13.994 46.493-21.216 91.632-37.917 134.515-48.75 7.222-1.806 13.541-6.772 17.153-13.091 3.61-6.771 4.965-14.445 2.708-21.667C642.453 6.635999999999967 581.966-67.39300000000003 512-67.39300000000003z m0 613.443c-4.063 0-8.125 0.903-11.736 2.708-46.494 21.216-91.633 37.917-134.515 48.75-7.223 1.806-13.542 6.772-17.153 13.091-3.611 6.771-4.965 14.445-2.709 21.667C381.547 761.364 442.034 835.393 512 835.393s130.453-74.029 166.113-202.676c1.805-7.222 0.902-14.896-2.709-21.666s-9.93-11.285-17.153-13.09c-42.882-11.286-88.021-27.536-134.515-48.751-3.61-2.257-7.673-3.16-11.736-3.16z m-103.82 98.404c33.854-10.382 68.611-23.021 103.82-38.82 35.209 15.799 69.966 28.889 103.82 38.82-27.535 82.604-66.806 134.515-103.82 134.515s-76.285-51.91-103.82-134.515zM233.942 355.562c-7.674 0-14.896 3.16-20.313 8.577-93.89 95.695-127.292 185.07-92.535 245.557 34.757 60.487 129.098 75.834 258.648 42.431 14.896-4.062 24.375-19.41 20.313-34.306-4.063-14.896-19.41-24.375-34.306-20.312-98.404 25.278-175.592 18.958-195.905-16.25-18.507-32.05 6.771-92.084 64.55-157.085 28.437 26.632 60.937 52.813 96.146 78.09 12.64 9.029 30.243 5.869 39.271-6.77 9.028-12.639 5.868-30.243-6.77-39.271-41.529-29.34-78.543-60.487-109.238-92.084-5.416-5.417-12.639-8.577-19.86-8.577z m531.29-257.294c-35.21 0-75.835 5.869-120.974 17.153-7.222 1.806-13.542 6.771-17.153 13.09-3.611 6.772-4.965 14.445-2.708 21.668 11.736 42.882 20.312 90.278 24.826 140.834 0.903 8.125 4.966 15.799 11.737 20.313 41.528 29.34 78.542 60.486 109.237 92.084 5.416 5.417 12.639 8.576 20.312 8.576 7.674 0 14.896-3.16 20.313-8.576 93.89-95.244 127.293-185.071 92.536-245.558-23.473-39.27-71.32-59.584-138.127-59.584z m-79.446 65.904c85.313-17.605 149.863-9.48 168.37 22.57 18.507 32.048-6.771 92.083-64.55 157.084-25.729-23.924-54.167-47.848-85.764-70.417-4.063-38.369-10.382-74.931-18.056-109.237zM651.029 114.97000000000003c-2.257 0-4.514 0.451-7.222 0.903-46.042 11.736-94.341 29.34-143.995 52.361-13.993 6.32-20.312 23.473-13.993 37.466 6.32 13.993 23.473 20.313 37.466 13.993 36.563-16.701 72.674-30.695 106.98-41.077a837.826 837.826 0 0 1 18.056 113.3c1.354 15.347 15.347 27.083 30.694 25.73 15.348-1.355 27.084-15.348 25.73-30.695-4.966-54.168-13.993-104.724-26.632-150.766-3.16-13.09-14.445-21.215-27.084-21.215z m139.029 240.592c-7.222 0-14.445 2.709-19.861 8.125-11.285 10.834-11.285 28.89-0.452 39.723 71.32 72.674 104.272 142.64 83.96 177.849-18.508 32.049-83.057 40.174-168.37 22.57 9.028-38.37 15.347-78.994 19.41-122.328 1.354-15.348-9.93-29.34-25.73-30.695-15.347-1.354-29.34 9.93-30.694 25.73-4.514 50.555-13.09 97.952-24.827 140.834-1.806 7.222-0.903 14.896 2.708 21.667s9.931 11.285 17.153 13.09c129.55 33.403 223.891 18.056 258.648-42.43 34.758-60.487 1.355-149.863-92.535-245.558-4.514-5.417-11.736-8.577-19.41-8.577z m-531.29-257.294c-66.805 0-115.104 20.313-137.674 60.036-34.757 60.486-1.354 149.862 92.535 245.557 5.417 5.417 12.64 8.577 20.313 8.577 7.674 0 14.896-3.16 20.313-8.577 31.146-31.597 67.709-62.292 109.237-92.084 6.77-4.965 10.833-12.187 11.736-20.313 4.514-50.555 13.09-97.952 24.827-140.834 1.805-7.222 0.902-14.896-2.709-21.667s-9.93-11.285-17.153-13.09c-45.139-11.736-85.764-17.605-121.424-17.605z m-23.923 245.558c-57.778-65-83.056-125.036-64.55-157.085 18.508-32.049 83.057-40.174 168.37-22.57-8.125 34.307-13.993 70.87-18.056 109.238-31.597 22.57-60.486 46.042-85.764 70.417zM676.758 450.806c-14.444 0-26.632 10.834-27.986 25.73-3.611 40.173-9.48 78.09-18.056 113.3-34.757-10.383-70.417-24.376-106.98-41.078-13.993-6.32-30.694-0.451-37.465 13.994-6.32 13.993-0.452 30.694 13.993 37.465 49.202 22.57 97.952 40.174 143.994 52.362 14.896 4.062 30.243-4.966 34.306-19.862 12.639-46.042 21.667-96.598 26.632-150.765 1.354-15.347-9.93-29.34-25.73-30.694-0.902-0.452-1.805-0.452-2.708-0.452zM372.971 114.97000000000003c-12.188 0-23.924 8.125-27.084 20.764-12.639 46.042-21.666 96.598-26.632 150.765-0.902 10.834 4.514 21.667 13.993 27.084 9.48 5.416 21.216 4.965 30.244-1.354 25.278-17.605 51.459-34.758 78.09-50.105 26.633-15.347 54.62-29.792 82.154-42.431 13.993-6.32 20.313-23.472 13.993-37.466-6.32-13.993-23.472-20.312-37.465-13.993-29.34 13.542-58.681 28.89-87.119 45.14-10.382 5.868-20.313 12.187-30.695 18.507 4.514-28.438 10.382-55.522 17.605-80.8 4.062-14.896-4.514-30.694-19.862-34.757-2.257-1.354-4.965-1.354-7.222-1.354zM346.79 260.77c-5.416 0-11.285 1.805-16.25 4.965-44.236 31.146-83.959 64.55-116.91 98.404-10.834 10.833-10.834 28.437 0 39.722 33.402 33.855 72.674 67.258 116.91 98.404 12.64 9.028 30.243 5.868 39.271-6.771 9.028-12.639 5.868-30.243-6.77-39.271-32.952-23.473-62.744-47.396-89.376-72.223 26.18-24.827 56.424-48.75 89.375-72.223 12.64-9.028 15.8-26.632 6.771-39.271-5.416-7.674-13.993-11.736-23.02-11.736z m329.968 0c-4.965 0-9.93 1.354-13.993 3.61-9.48 5.418-14.896 16.251-13.993 27.084 2.708 30.244 4.063 61.39 4.063 92.536s-1.355 62.292-4.063 92.536c-1.354 15.347 9.93 29.34 25.73 30.694 15.347 1.354 29.34-9.93 30.694-25.73 2.708-32.048 4.514-65 4.514-97.951 0-11.737 0-23.924-0.451-35.66 22.118 18.055 42.882 36.562 61.389 55.52 10.833 11.286 28.89 11.286 39.723 0.452 11.284-10.833 11.284-28.889 0.451-39.722-33.403-33.855-72.674-67.258-116.91-98.404-5.417-3.16-11.286-4.965-17.154-4.965zM347.242 450.806c-9.028 0-17.605 4.063-23.021 11.736-9.028 12.64-5.868 30.244 6.77 39.272 26.633 18.507 54.168 36.562 82.605 52.812 28.438 16.25 57.327 31.598 87.12 45.14 13.992 6.32 30.694 0.451 37.465-13.993 6.32-13.994 0.451-30.695-13.993-37.466-27.987-12.639-55.522-27.084-82.154-42.431-26.632-15.347-53.264-32.5-78.09-50.105-5.418-3.16-11.286-4.965-16.702-4.965zM677.21 260.77H674.5c-15.347 1.354-27.083 15.347-25.729 30.694 2.708 30.244 4.063 61.39 4.063 92.536s-1.355 62.292-4.063 92.536c-1.354 15.347 9.93 29.34 25.73 30.694 15.347 1.354 29.34-9.93 30.694-25.73 2.708-32.048 4.514-65 4.514-97.951s-1.354-65.904-4.514-97.953c-1.354-13.993-13.993-24.826-27.986-24.826zM512 165.52599999999995c-4.063 0-8.125 0.903-11.736 2.708-29.34 13.542-58.681 28.89-87.119 45.14-28.438 16.25-55.973 34.305-82.605 52.812-12.639 9.028-15.799 26.633-6.77 39.272 9.027 12.639 26.631 15.798 39.27 6.77 25.278-17.604 51.46-34.757 78.091-50.104 26.633-15.347 54.619-29.792 82.154-42.431 13.993-6.32 20.312-23.472 13.993-37.466-4.514-10.833-14.445-16.701-25.278-16.701z m0 115.105c-56.875 0-103.369 46.494-103.369 103.369S455.125 487.369 512 487.369 615.369 440.875 615.369 384 568.875 280.631 512 280.631z m0 150.314c-25.73 0-46.945-21.216-46.945-46.945s21.216-46.945 46.945-46.945 46.945 21.216 46.945 46.945-21.216 46.945-46.945 46.945z"  horiz-adv-x="1024" />

    
    <glyph glyph-name="beian" unicode="&#58883;" d="M511.427-69.399c170.24 67.637 283.732 164.508 340.479 283.733 73.37 142.153 90.565 306.087 56.746 499.254L511.427 837.972 114.774 707.856c-33.818-187.435-17.196-351.37 51.015-493.522C227.694 94.53499999999997 341.76-1.7619999999999436 511.427-69.39999999999998zM216.23 236.688c-62.478 124.384-79.1 266.537-51.014 431.618l345.638 112.92 345.637-112.92c22.355-164.508 5.732-306.087-56.746-425.886C748.73 140.39099999999996 651.86 60.716999999999985 510.28-1.7619999999999436c-146.165 56.747-243.035 142.153-294.05 238.45zM279.282 275.66600000000005v252.78h47.575v-252.78h-47.575z m244.182 93.43l45.856-15.475c-6.879-27.514-18.916-47.576-34.965-61.906-16.623-13.183-37.258-20.062-63.052-20.062-31.526 0-57.32 11.464-77.382 34.392-20.062 22.355-30.38 53.88-30.38 94.578 0 42.416 10.318 75.089 30.38 98.016 20.062 23.502 47.003 34.965 79.675 34.965 28.66 0 52.16-9.17 70.503-27.513 10.89-10.89 18.916-26.367 24.074-46.429l-47.002-12.037c-2.293 13.183-8.598 23.501-17.769 30.953-8.598 7.451-19.489 11.463-32.099 11.463-17.77 0-31.526-6.878-42.99-20.061-10.89-13.184-16.622-34.965-16.622-65.345 0-32.099 5.731-54.454 16.622-68.784 10.891-13.756 24.648-20.061 41.27-20.061 12.61 0 23.501 4.585 32.673 13.183 10.317 7.452 17.196 21.208 21.208 40.124z m86.553-93.43v252.78h76.235c28.66 0 47.575-1.147 56.746-4.013 13.184-4.012 24.648-12.037 33.82-24.647 8.597-12.61 13.756-28.66 13.756-49.295 0-15.476-2.293-28.087-8.025-38.978-5.159-10.89-12.037-18.915-20.062-25.22s-16.623-10.318-24.647-12.037c-11.464-2.293-27.514-4.013-49.868-4.013h-30.38v-95.724l-47.575 1.147z m48.148 210.363v-71.65h25.794c18.916 0 31.526 1.147 37.831 4.013 6.305 2.293 11.464 6.878 14.903 12.61 4.013 5.732 5.732 12.037 5.732 19.489 0 9.171-2.293 17.196-7.451 22.355-5.16 6.305-11.464 9.17-18.916 11.463-5.732 1.147-17.196 1.72-33.818 1.72h-24.075z"  horiz-adv-x="1024" />

    
    <glyph glyph-name="lower" unicode="&#58884;" d="M62.7 830.474l449.517-438.068L967.475 832.379l53.49-1.905-508.748-538.035L3.485 830.474H62.7z m0-358.47l449.517-438.07 455.258 439.333 53.49-1.263L512.217-66.66999999999996 3.485 472.004H62.7z"  horiz-adv-x="1024" />

    
    <glyph glyph-name="prev" unicode="&#58885;" d="M958.474 833.3L520.406 383.783l439.973-455.258-1.905-53.49-538.035 508.748L958.474 892.515V833.3z m-358.47 0l-438.07-449.517 439.333-455.258-1.263-53.49L61.33 383.783 600.004 892.515V833.3z"  horiz-adv-x="1024" />

    
    <glyph glyph-name="next" unicode="&#58886;" d="M65.526-65.29999999999995l438.068 449.517L63.621 839.475l1.905 53.49 538.035-508.748-538.035-508.732V-65.29999999999995z m358.47 0l438.07 449.517L422.732 839.475l1.263 53.49L962.67 384.217l-538.674-508.732V-65.29999999999995z"  horiz-adv-x="1024" />

    
    <glyph glyph-name="upper" unicode="&#58888;" d="M961.3-62.474000000000046L511.783 375.59400000000005 56.525-64.37900000000002l-53.49 1.905 508.748 538.035 508.732-538.035H961.3z m0 358.47l-449.517 438.07L56.525 294.73199999999997l-53.49 1.263L511.783 834.67l508.732-538.674H961.3z"  horiz-adv-x="1024" />

    
    <glyph glyph-name="biaoyu" unicode="&#58889;" d="M819.712 689.152H204.288c-29.184 0-53.248-24.064-53.248-53.248v-504.32c0-29.184 24.064-53.248 53.248-53.248H819.2c29.696 0 53.248 24.064 53.248 53.248V636.928c0 28.672-23.04 52.224-52.736 52.224z m-1.536-542.208s-6.656-13.824-13.824-13.824H219.648c-7.68 0-13.824 6.656-13.824 13.824V621.568c0 7.68 6.656 13.824 13.824 13.824h584.704c7.68 0 13.824-6.656 13.824-13.824v-474.624zM315.904 227.328c0-16.896 13.824-30.72 30.72-30.72s30.72 13.824 30.72 30.72-13.824 30.72-30.72 30.72-30.72-13.824-30.72-30.72z m112.128 0c0-16.896 13.824-30.72 30.72-30.72s30.72 13.824 30.72 30.72-13.824 30.72-30.72 30.72-30.72-13.824-30.72-30.72z m105.984 0c0-16.896 13.824-30.72 30.72-30.72s30.72 13.824 30.72 30.72-13.824 30.72-30.72 30.72-30.72-13.824-30.72-30.72z m113.152 0c0-16.896 13.824-30.72 30.72-30.72s30.72 13.824 30.72 30.72-13.824 30.72-30.72 30.72-30.72-13.824-30.72-30.72z m-497.664-41.984H90.112c-5.632 0-10.24 4.608-10.24 10.24V572.928c0 5.632 4.608 10.24 10.24 10.24h59.904l1.024 41.472H78.336c-22.016 0-40.96-17.92-40.96-40.96v-399.36c0-22.016 17.92-40.96 40.96-40.96h71.168v41.984z m724.992-41.472h71.168c22.528 0 40.96 17.92 40.96 40.96V583.68c0 22.016-18.432 40.96-40.96 40.96h-72.192l1.024-41.472H934.4c5.632 0 10.24-5.12 10.24-10.24v-376.832c0-5.632-4.608-10.24-10.24-10.24h-59.392l-0.512-41.984z"  horiz-adv-x="1024" />

    
    <glyph glyph-name="guanggaoyu" unicode="&#58890;" d="M849.5 682.125c33.75 0 56.25-28.125 56.25-56.25v-483.75c0-33.75-28.125-56.25-56.25-56.25H180.125c-33.75 0-56.25 28.125-56.25 56.25v483.75c0 33.75 28.125 56.25 56.25 56.25H849.5zM855.125 744H174.5C112.625 744 62 693.375 62 631.5v-495C62 74.625 112.625 24 174.5 24h675c61.875 0 112.5 50.625 112.5 112.5v495c0 61.875-50.625 112.5-106.875 112.5M776.375 490.875c-22.5 28.125-56.25 45-95.625 45h-135V215.25h129.375c39.375 0 73.125 16.875 101.25 45 22.5 28.125 39.375 67.5 33.75 118.125 0 45-11.25 84.375-33.75 112.5z m-45-196.875c-16.875-16.875-33.75-28.125-61.875-28.125H602v213.75h73.125c22.5 0 45-11.25 56.25-28.125s22.5-45 22.5-78.75-5.625-56.25-22.5-78.75z m-337.5 236.25H343.25l-118.125-315H287l33.75 84.375H422l28.125-84.375h56.25l-112.5 315zM332 350.25L365.75 474l39.375-123.75H332z"  horiz-adv-x="1024" />

    
    <glyph glyph-name="kouhao" unicode="&#58894;" d="M532.44180317 584.54972274c-15.11619048 0-27.41827725-12.91757037-27.41827724-28.80419894v-96.48788995H388.56817777V555.7455238c0 15.88662857-12.29775238 28.80419894-27.40527407 28.80419894-15.11727408 0-27.40960846-12.91757037-27.40960847-28.80419894v-258.92137989c0-15.88229418 12.29233439-28.80419894 27.40960847-28.80419895 15.1075217 0 27.40527408 12.92190476 27.40527407 28.80419895V407.92326772h116.45643175v-111.09804022c0-15.88229418 12.30208678-28.80419894 27.41827725-28.80419894 15.10102011 0 27.40527408 12.92190476 27.40527408 28.80419894V555.74227301c0 15.88987937-12.30533757 28.80744973-27.40635768 28.80744973M650.29282539 468.64050793v-174.82551535c0-17.43942434 10.14139259-25.79504762 22.60276825-25.79504762 12.46354286 0 22.61143703 8.35562328 22.61143705 25.79504762V468.64050793c0 17.45026032-10.14789418 25.46996825-22.61143705 25.46996825-12.46029206 0.0010836-22.60276825-8.01970794-22.60276825-25.46996825z m20.74764868 115.90921481c-11.43520846 0-20.74656508-10.14139259-20.74656508-22.61252064 0-12.45920846 9.31244021-22.60710265 20.74656508-22.60710264h3.70482116c11.45146243 0 20.76281905 10.14789418 20.76281905 22.60710264 0 12.47112805-9.31135662 22.61252063-20.76281905 22.61252064h-3.70482116zM899.56368253 662.22852062v-443.93271534c0-45.55337143-36.13257143-82.61783703-80.54166349-82.61783704h-68.58416084l-88.0141545-105.00063492-93.33570371 105.00063492H205.47589418c-44.40909206 0-80.54599789 37.06446561-80.54599789 82.61783704V662.22852062c0 45.55770582 36.13690582 82.60700106 80.54599789 82.60700107h613.54504127c44.41125926-0.0010836 80.54274709-37.04929524 80.54274708-82.60700107m-56.50096084 146.36156615H181.43194074c-65.61076825 0-118.99963598-54.74336508-118.99963598-122.04129524v-492.57759154c0-67.29793016 53.38995132-122.03804444 118.99963598-122.03804444h354.16963386l93.39855238-105.15017143c8.67203386-9.74696297 20.94486349-15.29823492 33.78658201-15.29823492 0.2048 0 0.42693757 0.00866878 0.63282116 0.00866878 13.06277249 0.18962963 25.46238307 6.12016084 33.99138202 16.27672381l87.44418201 104.16301376h58.20654391c65.61510265 0 118.99638519 54.74011429 118.99638519 122.03804444V686.54879153c0.0010836 67.29793016-53.38128254 122.04129524-118.99530159 122.04129524"  horiz-adv-x="1024" />

    


  </font>
</defs>
</svg>
